<mxfile host="app.diagrams.net" modified="2022-12-08T07:12:13.392Z" agent="5.0 (Macintosh; Intel Mac OS X 10_15_7) AppleWebKit/537.36 (KHTML, like Gecko) Chrome/108.0.0.0 Safari/537.36" version="20.6.0" etag="9evYW9XWEKNKL3Xr9T7L" type="github">
  <diagram id="G4B_7WIg4GU688tYxf2x" name="第 1 页">
    <mxGraphModel dx="815" dy="439" grid="1" gridSize="10" guides="1" tooltips="1" connect="1" arrows="1" fold="1" page="1" pageScale="1" pageWidth="827" pageHeight="1169" math="0" shadow="0">
      <root>
        <mxCell id="0" />
        <mxCell id="1" parent="0" />
        <mxCell id="cRNqoKmY8RMHml44oDbO-1" value="worker" style="text;html=1;align=center;verticalAlign=middle;resizable=0;points=[];autosize=1;strokeColor=none;fillColor=none;" vertex="1" parent="1">
          <mxGeometry x="70" y="40" width="60" height="30" as="geometry" />
        </mxCell>
        <mxCell id="cRNqoKmY8RMHml44oDbO-2" value="daemon" style="text;html=1;align=center;verticalAlign=middle;resizable=0;points=[];autosize=1;strokeColor=none;fillColor=none;" vertex="1" parent="1">
          <mxGeometry x="110" y="59" width="70" height="30" as="geometry" />
        </mxCell>
        <mxCell id="cRNqoKmY8RMHml44oDbO-3" value="data_manage" style="text;html=1;align=center;verticalAlign=middle;resizable=0;points=[];autosize=1;strokeColor=none;fillColor=none;" vertex="1" parent="1">
          <mxGeometry x="110" y="77" width="100" height="30" as="geometry" />
        </mxCell>
        <mxCell id="cRNqoKmY8RMHml44oDbO-4" value="descriptor" style="text;html=1;align=center;verticalAlign=middle;resizable=0;points=[];autosize=1;strokeColor=none;fillColor=none;" vertex="1" parent="1">
          <mxGeometry x="110" y="96" width="80" height="30" as="geometry" />
        </mxCell>
        <mxCell id="cRNqoKmY8RMHml44oDbO-5" value="redis_lock" style="text;html=1;align=center;verticalAlign=middle;resizable=0;points=[];autosize=1;strokeColor=none;fillColor=none;" vertex="1" parent="1">
          <mxGeometry x="110" y="114" width="80" height="30" as="geometry" />
        </mxCell>
        <mxCell id="cRNqoKmY8RMHml44oDbO-6" value="task_manager" style="text;html=1;align=center;verticalAlign=middle;resizable=0;points=[];autosize=1;strokeColor=none;fillColor=none;" vertex="1" parent="1">
          <mxGeometry x="110" y="133" width="100" height="30" as="geometry" />
        </mxCell>
        <mxCell id="cRNqoKmY8RMHml44oDbO-7" value="worker" style="text;html=1;align=center;verticalAlign=middle;resizable=0;points=[];autosize=1;strokeColor=none;fillColor=none;" vertex="1" parent="1">
          <mxGeometry x="110" y="151" width="60" height="30" as="geometry" />
        </mxCell>
        <mxCell id="cRNqoKmY8RMHml44oDbO-8" value="run_task_worker.py" style="text;html=1;align=center;verticalAlign=middle;resizable=0;points=[];autosize=1;strokeColor=none;fillColor=none;" vertex="1" parent="1">
          <mxGeometry x="110" y="170" width="130" height="30" as="geometry" />
        </mxCell>
        <mxCell id="cRNqoKmY8RMHml44oDbO-9" value="" style="endArrow=none;html=1;rounded=0;" edge="1" parent="1">
          <mxGeometry width="50" height="50" relative="1" as="geometry">
            <mxPoint x="100" y="70" as="sourcePoint" />
            <mxPoint x="100" y="190" as="targetPoint" />
          </mxGeometry>
        </mxCell>
      </root>
    </mxGraphModel>
  </diagram>
</mxfile>
